# Tiled2Unity generated file. Do not modify by hand.
# Wavefront file for 'Test-A_mesh_0004.obj'

# Vertices (Count = 340)
v 0 -48 0
v -48 -48 0
v -48 0 0
v 0 0 0
v -48 -48 0
v -96 -48 0
v -96 0 0
v -48 0 0
v -96 -48 0
v -144 -48 0
v -144 0 0
v -96 0 0
v -480 -48 0
v -528 -48 0
v -528 0 0
v -480 0 0
v -528 -48 0
v -576 -48 0
v -576 0 0
v -528 0 0
v -576 -48 0
v -624 -48 0
v -624 0 0
v -576 0 0
v -672 -48 0
v -720 -48 0
v -720 0 0
v -672 0 0
v -720 -48 0
v -768 -48 0
v -768 0 0
v -720 0 0
v -768 -48 0
v -816 -48 0
v -816 0 0
v -768 0 0
v 0 -96 0
v -48 -96 0
v -48 -48 0
v 0 -48 0
v -48 -96 0
v -96 -96 0
v -96 -48 0
v -48 -48 0
v -96 -96 0
v -144 -96 0
v -144 -48 0
v -96 -48 0
v -480 -96 0
v -528 -96 0
v -528 -48 0
v -480 -48 0
v -528 -96 0
v -576 -96 0
v -576 -48 0
v -528 -48 0
v -576 -96 0
v -624 -96 0
v -624 -48 0
v -576 -48 0
v -672 -96 0
v -720 -96 0
v -720 -48 0
v -672 -48 0
v -720 -96 0
v -768 -96 0
v -768 -48 0
v -720 -48 0
v -768 -96 0
v -816 -96 0
v -816 -48 0
v -768 -48 0
v 0 -144 0
v -48 -144 0
v -48 -96 0
v 0 -96 0
v -48 -144 0
v -96 -144 0
v -96 -96 0
v -48 -96 0
v -96 -144 0
v -144 -144 0
v -144 -96 0
v -96 -96 0
v -480 -144 0
v -528 -144 0
v -528 -96 0
v -480 -96 0
v -528 -144 0
v -576 -144 0
v -576 -96 0
v -528 -96 0
v -576 -144 0
v -624 -144 0
v -624 -96 0
v -576 -96 0
v -672 -144 0
v -720 -144 0
v -720 -96 0
v -672 -96 0
v -720 -144 0
v -768 -144 0
v -768 -96 0
v -720 -96 0
v -768 -144 0
v -816 -144 0
v -816 -96 0
v -768 -96 0
v 0 -192 0
v -48 -192 0
v -48 -144 0
v 0 -144 0
v -48 -192 0
v -96 -192 0
v -96 -144 0
v -48 -144 0
v -96 -192 0
v -144 -192 0
v -144 -144 0
v -96 -144 0
v -480 -192 0
v -528 -192 0
v -528 -144 0
v -480 -144 0
v -528 -192 0
v -576 -192 0
v -576 -144 0
v -528 -144 0
v -576 -192 0
v -624 -192 0
v -624 -144 0
v -576 -144 0
v -672 -192 0
v -720 -192 0
v -720 -144 0
v -672 -144 0
v -720 -192 0
v -768 -192 0
v -768 -144 0
v -720 -144 0
v -768 -192 0
v -816 -192 0
v -816 -144 0
v -768 -144 0
v -48 -288 0
v -96 -288 0
v -96 -240 0
v -48 -240 0
v -96 -288 0
v -144 -288 0
v -144 -240 0
v -96 -240 0
v -144 -288 0
v -192 -288 0
v -192 -240 0
v -144 -240 0
v -192 -288 0
v -240 -288 0
v -240 -240 0
v -192 -240 0
v -240 -288 0
v -288 -288 0
v -288 -240 0
v -240 -240 0
v -288 -288 0
v -336 -288 0
v -336 -240 0
v -288 -240 0
v -624 -288 0
v -672 -288 0
v -672 -240 0
v -624 -240 0
v -672 -288 0
v -720 -288 0
v -720 -240 0
v -672 -240 0
v -720 -288 0
v -768 -288 0
v -768 -240 0
v -720 -240 0
v -48 -336 0
v -96 -336 0
v -96 -288 0
v -48 -288 0
v -96 -336 0
v -144 -336 0
v -144 -288 0
v -96 -288 0
v -144 -336 0
v -192 -336 0
v -192 -288 0
v -144 -288 0
v -192 -336 0
v -240 -336 0
v -240 -288 0
v -192 -288 0
v -240 -336 0
v -288 -336 0
v -288 -288 0
v -240 -288 0
v -288 -336 0
v -336 -336 0
v -336 -288 0
v -288 -288 0
v -624 -336 0
v -672 -336 0
v -672 -288 0
v -624 -288 0
v -672 -336 0
v -720 -336 0
v -720 -288 0
v -672 -288 0
v -720 -336 0
v -768 -336 0
v -768 -288 0
v -720 -288 0
v -48 -384 0
v -96 -384 0
v -96 -336 0
v -48 -336 0
v -96 -384 0
v -144 -384 0
v -144 -336 0
v -96 -336 0
v -144 -384 0
v -192 -384 0
v -192 -336 0
v -144 -336 0
v -192 -384 0
v -240 -384 0
v -240 -336 0
v -192 -336 0
v -240 -384 0
v -288 -384 0
v -288 -336 0
v -240 -336 0
v -288 -384 0
v -336 -384 0
v -336 -336 0
v -288 -336 0
v -624 -384 0
v -672 -384 0
v -672 -336 0
v -624 -336 0
v -672 -384 0
v -720 -384 0
v -720 -336 0
v -672 -336 0
v -720 -384 0
v -768 -384 0
v -768 -336 0
v -720 -336 0
v -48 -432 0
v -96 -432 0
v -96 -384 0
v -48 -384 0
v -96 -432 0
v -144 -432 0
v -144 -384 0
v -96 -384 0
v -144 -432 0
v -192 -432 0
v -192 -384 0
v -144 -384 0
v -192 -432 0
v -240 -432 0
v -240 -384 0
v -192 -384 0
v -240 -432 0
v -288 -432 0
v -288 -384 0
v -240 -384 0
v -288 -432 0
v -336 -432 0
v -336 -384 0
v -288 -384 0
v -624 -432 0
v -672 -432 0
v -672 -384 0
v -624 -384 0
v -672 -432 0
v -720 -432 0
v -720 -384 0
v -672 -384 0
v -720 -432 0
v -768 -432 0
v -768 -384 0
v -720 -384 0
v -144 -480 0
v -192 -480 0
v -192 -432 0
v -144 -432 0
v -192 -480 0
v -240 -480 0
v -240 -432 0
v -192 -432 0
v -240 -480 0
v -288 -480 0
v -288 -432 0
v -240 -432 0
v -144 -528 0
v -192 -528 0
v -192 -480 0
v -144 -480 0
v -192 -528 0
v -240 -528 0
v -240 -480 0
v -192 -480 0
v -240 -528 0
v -288 -528 0
v -288 -480 0
v -240 -480 0
v -144 -576 0
v -192 -576 0
v -192 -528 0
v -144 -528 0
v -192 -576 0
v -240 -576 0
v -240 -528 0
v -192 -528 0
v -240 -576 0
v -288 -576 0
v -288 -528 0
v -240 -528 0
v -384 -576 0
v -432 -576 0
v -432 -528 0
v -384 -528 0
v -144 -624 0
v -192 -624 0
v -192 -576 0
v -144 -576 0
v -192 -624 0
v -240 -624 0
v -240 -576 0
v -192 -576 0
v -240 -624 0
v -288 -624 0
v -288 -576 0
v -240 -576 0

# Texture cooridinates (Count = 41)
vt 0.1875 0.4375
vt 0.25 0.4375
vt 0.25 0.5
vt 0.1875 0.5
vt 0.3125 0.4375
vt 0.3125 0.5
vt 0.375 0.4375
vt 0.375 0.5
vt 0 0.6875
vt 0.0625 0.6875
vt 0.0625 0.75
vt 0 0.75
vt 0.125 0.6875
vt 0.125 0.75
vt 0.1875 0.6875
vt 0.1875 0.75
vt 0.1875 0.375
vt 0.25 0.375
vt 0.3125 0.375
vt 0.375 0.375
vt 0 0.625
vt 0.0625 0.625
vt 0.125 0.625
vt 0.1875 0.625
vt 0.1875 0.3125
vt 0.25 0.3125
vt 0.3125 0.3125
vt 0.375 0.3125
vt 0 0.5625
vt 0.0625 0.5625
vt 0.125 0.5625
vt 0.1875 0.5625
vt 0.1875 0.25
vt 0.25 0.25
vt 0.3125 0.25
vt 0.375 0.25
vt 0 0.5
vt 0.0625 0.5
vt 0.125 0.5
vt 0.3125 0.5625
vt 0.25 0.5625

# Normal
vn 0 0 -1

# Mesh description
g Test-A_mesh_0004

# Faces
f 1/1/1 2/2/1 3/3/1 4/4/1
f 5/2/1 6/5/1 7/6/1 8/3/1
f 9/5/1 10/7/1 11/8/1 12/6/1
f 13/1/1 14/2/1 15/3/1 16/4/1
f 17/2/1 18/5/1 19/6/1 20/3/1
f 21/5/1 22/7/1 23/8/1 24/6/1
f 25/9/1 26/10/1 27/11/1 28/12/1
f 29/10/1 30/13/1 31/14/1 32/11/1
f 33/13/1 34/15/1 35/16/1 36/14/1
f 37/17/1 38/18/1 39/2/1 40/1/1
f 41/18/1 42/19/1 43/5/1 44/2/1
f 45/19/1 46/20/1 47/7/1 48/5/1
f 49/17/1 50/18/1 51/2/1 52/1/1
f 53/18/1 54/19/1 55/5/1 56/2/1
f 57/19/1 58/20/1 59/7/1 60/5/1
f 61/21/1 62/22/1 63/10/1 64/9/1
f 65/22/1 66/23/1 67/13/1 68/10/1
f 69/23/1 70/24/1 71/15/1 72/13/1
f 73/25/1 74/26/1 75/18/1 76/17/1
f 77/26/1 78/27/1 79/19/1 80/18/1
f 81/27/1 82/28/1 83/20/1 84/19/1
f 85/25/1 86/26/1 87/18/1 88/17/1
f 89/26/1 90/27/1 91/19/1 92/18/1
f 93/27/1 94/28/1 95/20/1 96/19/1
f 97/29/1 98/30/1 99/22/1 100/21/1
f 101/30/1 102/31/1 103/23/1 104/22/1
f 105/31/1 106/32/1 107/24/1 108/23/1
f 109/33/1 110/34/1 111/26/1 112/25/1
f 113/34/1 114/35/1 115/27/1 116/26/1
f 117/35/1 118/36/1 119/28/1 120/27/1
f 121/33/1 122/34/1 123/26/1 124/25/1
f 125/34/1 126/35/1 127/27/1 128/26/1
f 129/35/1 130/36/1 131/28/1 132/27/1
f 133/37/1 134/38/1 135/30/1 136/29/1
f 137/38/1 138/39/1 139/31/1 140/30/1
f 141/39/1 142/4/1 143/32/1 144/31/1
f 145/1/1 146/2/1 147/3/1 148/4/1
f 149/2/1 150/5/1 151/6/1 152/3/1
f 153/5/1 154/7/1 155/8/1 156/6/1
f 157/9/1 158/10/1 159/11/1 160/12/1
f 161/10/1 162/13/1 163/14/1 164/11/1
f 165/13/1 166/15/1 167/16/1 168/14/1
f 169/1/1 170/2/1 171/3/1 172/4/1
f 173/2/1 174/5/1 175/6/1 176/3/1
f 177/5/1 178/7/1 179/8/1 180/6/1
f 181/17/1 182/18/1 183/2/1 184/1/1
f 185/18/1 186/19/1 187/5/1 188/2/1
f 189/19/1 190/20/1 191/7/1 192/5/1
f 193/21/1 194/22/1 195/10/1 196/9/1
f 197/22/1 198/23/1 199/13/1 200/10/1
f 201/23/1 202/24/1 203/15/1 204/13/1
f 205/17/1 206/18/1 207/2/1 208/1/1
f 209/18/1 210/19/1 211/5/1 212/2/1
f 213/19/1 214/20/1 215/7/1 216/5/1
f 217/25/1 218/26/1 219/18/1 220/17/1
f 221/26/1 222/27/1 223/19/1 224/18/1
f 225/27/1 226/28/1 227/20/1 228/19/1
f 229/29/1 230/30/1 231/22/1 232/21/1
f 233/30/1 234/31/1 235/23/1 236/22/1
f 237/31/1 238/32/1 239/24/1 240/23/1
f 241/25/1 242/26/1 243/18/1 244/17/1
f 245/26/1 246/27/1 247/19/1 248/18/1
f 249/27/1 250/28/1 251/20/1 252/19/1
f 253/33/1 254/34/1 255/26/1 256/25/1
f 257/34/1 258/35/1 259/27/1 260/26/1
f 261/35/1 262/36/1 263/28/1 264/27/1
f 265/37/1 266/38/1 267/30/1 268/29/1
f 269/38/1 270/39/1 271/31/1 272/30/1
f 273/39/1 274/4/1 275/32/1 276/31/1
f 277/33/1 278/34/1 279/26/1 280/25/1
f 281/34/1 282/35/1 283/27/1 284/26/1
f 285/35/1 286/36/1 287/28/1 288/27/1
f 289/1/1 290/2/1 291/3/1 292/4/1
f 293/2/1 294/5/1 295/6/1 296/3/1
f 297/5/1 298/7/1 299/8/1 300/6/1
f 301/17/1 302/18/1 303/2/1 304/1/1
f 305/18/1 306/19/1 307/5/1 308/2/1
f 309/19/1 310/20/1 311/7/1 312/5/1
f 313/25/1 314/26/1 315/18/1 316/17/1
f 317/26/1 318/27/1 319/19/1 320/18/1
f 321/27/1 322/28/1 323/20/1 324/19/1
f 325/3/1 326/6/1 327/40/1 328/41/1
f 329/33/1 330/34/1 331/26/1 332/25/1
f 333/34/1 334/35/1 335/27/1 336/26/1
f 337/35/1 338/36/1 339/28/1 340/27/1

