# Tiled2Unity generated file. Do not modify by hand.
# Wavefront file for 'Test-A_mesh_0005.obj'

# Vertices (Count = 36)
v -336 -432 0
v -384 -432 0
v -384 -384 0
v -336 -384 0
v -384 -432 0
v -432 -432 0
v -432 -384 0
v -384 -384 0
v -432 -432 0
v -480 -432 0
v -480 -384 0
v -432 -384 0
v -336 -480 0
v -384 -480 0
v -384 -432 0
v -336 -432 0
v -384 -480 0
v -432 -480 0
v -432 -432 0
v -384 -432 0
v -432 -480 0
v -480 -480 0
v -480 -432 0
v -432 -432 0
v -336 -528 0
v -384 -528 0
v -384 -480 0
v -336 -480 0
v -384 -528 0
v -432 -528 0
v -432 -480 0
v -384 -480 0
v -432 -528 0
v -480 -528 0
v -480 -480 0
v -432 -480 0

# Texture cooridinates (Count = 16)
vt 0.1875 0.6875
vt 0.25 0.6875
vt 0.25 0.75
vt 0.1875 0.75
vt 0.3125 0.6875
vt 0.3125 0.75
vt 0.375 0.6875
vt 0.375 0.75
vt 0.1875 0.625
vt 0.25 0.625
vt 0.3125 0.625
vt 0.375 0.625
vt 0.1875 0.5625
vt 0.25 0.5625
vt 0.3125 0.5625
vt 0.375 0.5625

# Normal
vn 0 0 -1

# Mesh description
g Test-A_mesh_0005

# Faces
f 1/1/1 2/2/1 3/3/1 4/4/1
f 5/2/1 6/5/1 7/6/1 8/3/1
f 9/5/1 10/7/1 11/8/1 12/6/1
f 13/9/1 14/10/1 15/2/1 16/1/1
f 17/10/1 18/11/1 19/5/1 20/2/1
f 21/11/1 22/12/1 23/7/1 24/5/1
f 25/13/1 26/14/1 27/10/1 28/9/1
f 29/14/1 30/15/1 31/11/1 32/10/1
f 33/15/1 34/16/1 35/12/1 36/11/1

